<svg width="24" height="24" viewBox="0 0 24 24"  xmlns="http://www.w3.org/2000/svg">
<path clip-rule="evenodd" d="M12 19.3432C11.9597 19.3432 11.8892 19.2942 11.7986 19.2255C7.57904 16.5001 3.62134 12.5687 3.62134 8.92163C3.62134 6.31379 5.35346 4.57849 7.68982 4.57849C9.58307 4.57849 10.6707 5.72555 11.3152 6.70594C11.5871 7.0981 11.7583 7.20594 12 7.20594C12.2417 7.20594 12.3927 7.08829 12.6848 6.70594C13.3796 5.74516 14.427 4.57849 16.3102 4.57849C18.6465 4.57849 20.3786 6.31379 20.3786 8.92163C20.3786 12.5687 16.4209 16.5001 12.2115 19.2255C12.1108 19.2942 12.0403 19.3432 12 19.3432Z" />
</svg>
